<?xml version="1.0"?>
<svg version="1.1" xmlns="http://www.w3.org/2000/svg" xmlns:xlink="http://www.w3.org/1999/xlink" width="220" height="221">
    <desc iVinci="yes" version="3.1" gridStep="5" showGrid="yes" snapToGrid="no" codePlatform="0"/>
    <g id="Layer1">
        <g id="Shape1">
            <desc type="0" basicInfo-basicType="0" basicInfo-roundedRectRadius="12" basicInfo-polygonSides="6" basicInfo-starPoints="5" bounding="rect(-60.1804,-109.551,120.361,219.102)" text="" font-familyName="" font-pixelSize="20" font-bold="0" font-underline="0" font-alignment="1" strokeStyle="0" markerStart="0" markerEnd="0" shadowEnabled="0" shadowOffsetX="0" shadowOffsetY="2" shadowBlur="4" shadowOpacity="160" transform="matrix(1,0,0,1,60.3196,110.449)" pers-center="0,0" pers-size="0,0" pers-start="0,0" pers-end="0,0" locked="0" mesh="" flag=""/>
            <path id="shapePath1" d="M35,1.10001 C27.7,2.5 19.9,7 13.4,13.4 C6.6,20.2 2.5,27.7 1,36.2 C0.299999,39.9 0,66.7 0.200001,113.7 C0.5,185.5 0.5,185.5 2.7,191 C5.8,198.6 13.2,207.5 20.7,212.6 C30.4,219.2 35.5,220 70.4,220 L100,220 L120.5,200 L100,200 L70.7,200 C37.5,200 34.9,199.6 28.1,193 C20,185.1 20.5,191.1 20.2,112.2 C20,66.5 20.3,40.6 21,38.1 C22.5,32.5 27.2,26.5 32.7,23.3 L37.5,20.5 L60.5,20.5 L65.5,20.5 L65.5,35.5 L100,1.10001 L69.369,1.10001 C52.669,1.2 37.5,0.600006 35,1.10001 Z" style="stroke:none;fill-rule:nonzero;fill:#000000;fill-opacity:1;"/>
        </g>
        <g id="Shape2">
            <desc type="0" basicInfo-basicType="0" basicInfo-roundedRectRadius="12" basicInfo-polygonSides="6" basicInfo-starPoints="5" bounding="rect(-59.6804,-109.611,119.361,219.222)" text="" font-familyName="" font-pixelSize="20" font-bold="0" font-underline="0" font-alignment="1" strokeStyle="0" markerStart="0" markerEnd="0" shadowEnabled="0" shadowOffsetX="0" shadowOffsetY="2" shadowBlur="4" shadowOpacity="160" transform="matrix(1,0,0,1,160.18,110.389)" pers-center="0,0" pers-size="0,0" pers-start="0,0" pers-end="0,0" locked="0" mesh="" flag=""/>
            <path id="shapePath2" d="M100.5,20.5 L120,20.5 L150.652,20.5 L182.5,20.5 L187.2,23.3 C189.8,24.8 193.1,27.5 194.4,29.3 C200.1,36.7 200,35.4 200,109.9 C200,187.5 200.3,184.6 192.4,192.4 C185.2,199.6 183.1,200 149.3,200 L155.5,200 L155.5,185.5 L120,220 L149.6,220 C184.5,220 189.6,219.2 199.3,212.6 C206.8,207.5 214.2,198.6 217.3,191 C219.5,185.5 219.5,185.5 219.8,113.7 C220,66.7 219.7,39.9 219,36.2 C217.5,27.7 213.4,20.2 206.6,13.4 C199.9,6.7 192.3,2.6 184.1,1 C181.2,0.5 165.4,1 149.3,1 L120,1 L100.5,20.5 Z" style="stroke:none;fill-rule:nonzero;fill:#000000;fill-opacity:1;"/>
        </g>
        <g id="Shape3">
            <desc type="0" basicInfo-basicType="0" basicInfo-roundedRectRadius="12" basicInfo-polygonSides="6" basicInfo-starPoints="5" bounding="rect(-29.6332,-29.5584,59.2664,59.1167)" text="" font-familyName="" font-pixelSize="20" font-bold="0" font-underline="0" font-alignment="1" strokeStyle="0" markerStart="0" markerEnd="0" shadowEnabled="0" shadowOffsetX="0" shadowOffsetY="2" shadowBlur="4" shadowOpacity="160" transform="matrix(0.538924,0,0,0.538924,50.5566,67.3861)" pers-center="0,0" pers-size="0,0" pers-start="0,0" pers-end="0,0" locked="0" mesh="" flag=""/>
            <path id="shapePath3" d="M45.4547,52.2738 C34.1373,56.3157 30.9038,70.3277 39.3649,78.7888 C42.6523,82.0763 45.7781,83.3158 50.6823,83.3158 C55.5865,83.3158 58.7123,82.0763 61.9997,78.7888 C65.2872,75.5014 66.5267,72.3756 66.5267,67.4714 C66.5267,62.8906 65.3949,59.7648 62.5925,56.5313 C58.7123,52.166 51.1134,50.2258 45.4547,52.2738 Z" style="stroke:none;fill-rule:evenodd;fill:#428bca;fill-opacity:1;"/>
        </g>
        <g id="Shape4">
            <desc type="0" basicInfo-basicType="0" basicInfo-roundedRectRadius="12" basicInfo-polygonSides="6" basicInfo-starPoints="5" bounding="rect(-100,-20,200,40)" text="" font-familyName="" font-pixelSize="20" font-bold="0" font-underline="0" font-alignment="1" strokeStyle="0" markerStart="0" markerEnd="0" shadowEnabled="0" shadowOffsetX="0" shadowOffsetY="2" shadowBlur="4" shadowOpacity="160" transform="matrix(0.538924,0,0,0.538924,131.521,67.4714)" pers-center="0,0" pers-size="0,0" pers-start="0,0" pers-end="0,0" locked="0" mesh="" flag=""/>
            <path id="shapePath4" d="M78.5447,57.663 C77.7902,58.5253 77.6285,60.0343 77.6285,67.5792 C77.6285,75.5014 77.7363,76.5793 78.5986,77.3337 C79.5148,78.196 83.9878,78.2499 131.629,78.2499 C181.318,78.2499 183.689,78.196 184.497,77.2799 C185.252,76.4176 185.413,74.9086 185.413,67.3636 C185.413,59.4415 185.306,58.3636 184.443,57.6091 C183.527,56.7468 179.054,56.6929 131.413,56.6929 C81.7244,56.6929 79.3531,56.7468 78.5447,57.663 Z" style="stroke:none;fill-rule:evenodd;fill:#000000;fill-opacity:1;"/>
        </g>
        <g id="Shape5">
            <desc type="0" basicInfo-basicType="0" basicInfo-roundedRectRadius="12" basicInfo-polygonSides="6" basicInfo-starPoints="5" bounding="rect(-29.5868,-29.5432,59.1737,59.0864)" text="" font-familyName="" font-pixelSize="20" font-bold="0" font-underline="0" font-alignment="1" strokeStyle="0" markerStart="0" markerEnd="0" shadowEnabled="0" shadowOffsetX="0" shadowOffsetY="2" shadowBlur="4" shadowOpacity="160" transform="matrix(0.538924,0,0,0.538924,50.5816,110.508)" pers-center="0,0" pers-size="0,0" pers-start="0,0" pers-end="0,0" locked="0" mesh="" flag=""/>
            <path id="shapePath5" d="M46.2631,95.1182 C34.5146,98.4595 30.6882,113.226 39.3649,121.903 C42.6523,125.19 45.7781,126.43 50.6823,126.43 C55.5865,126.43 58.7123,125.19 61.9997,121.903 C65.2872,118.615 66.5267,115.49 66.5267,110.585 C66.5267,106.004 65.3949,102.879 62.5925,99.6452 C58.9817,95.5494 51.814,93.5553 46.2631,95.1182 Z" style="stroke:none;fill-rule:evenodd;fill:#428bca;fill-opacity:1;"/>
        </g>
        <g id="Shape6">
            <desc type="0" basicInfo-basicType="0" basicInfo-roundedRectRadius="12" basicInfo-polygonSides="6" basicInfo-starPoints="5" bounding="rect(-100,-20,200,40)" text="" font-familyName="" font-pixelSize="20" font-bold="0" font-underline="0" font-alignment="1" strokeStyle="0" markerStart="0" markerEnd="0" shadowEnabled="0" shadowOffsetX="0" shadowOffsetY="2" shadowBlur="4" shadowOpacity="160" transform="matrix(0.538924,0,0,0.538924,131.521,110.585)" pers-center="0,0" pers-size="0,0" pers-start="0,0" pers-end="0,0" locked="0" mesh="" flag=""/>
            <path id="shapePath6" d="M78.5447,100.777 C77.7902,101.639 77.6285,103.148 77.6285,110.693 C77.6285,118.615 77.7363,119.693 78.5986,120.448 C79.5148,121.31 83.9878,121.364 131.629,121.364 C181.318,121.364 183.689,121.31 184.497,120.394 C185.252,119.532 185.413,118.023 185.413,110.478 C185.413,102.555 185.306,101.478 184.443,100.723 C183.527,99.8608 179.054,99.8069 131.413,99.8069 C81.7244,99.8069 79.3531,99.8608 78.5447,100.777 Z" style="stroke:none;fill-rule:evenodd;fill:#000000;fill-opacity:1;"/>
        </g>
        <g id="Shape7">
            <desc type="0" basicInfo-basicType="0" basicInfo-roundedRectRadius="12" basicInfo-polygonSides="6" basicInfo-starPoints="5" bounding="rect(-29.5868,-29.5432,59.1737,59.0864)" text="" font-familyName="" font-pixelSize="20" font-bold="0" font-underline="0" font-alignment="1" strokeStyle="0" markerStart="0" markerEnd="0" shadowEnabled="0" shadowOffsetX="0" shadowOffsetY="2" shadowBlur="4" shadowOpacity="160" transform="matrix(0.538924,0,0,0.538924,50.5816,153.622)" pers-center="0,0" pers-size="0,0" pers-start="0,0" pers-end="0,0" locked="0" mesh="" flag=""/>
            <path id="shapePath7" d="M46.2631,138.232 C34.5146,141.573 30.6882,156.34 39.3649,165.017 C42.6523,168.304 45.7781,169.544 50.6823,169.544 C55.5865,169.544 58.7123,168.304 61.9997,165.017 C65.2872,161.729 66.5267,158.604 66.5267,153.699 C66.5267,149.118 65.3949,145.993 62.5925,142.759 C58.9817,138.663 51.814,136.669 46.2631,138.232 Z" style="stroke:none;fill-rule:evenodd;fill:#428bca;fill-opacity:1;"/>
        </g>
        <g id="Shape8">
            <desc type="0" basicInfo-basicType="0" basicInfo-roundedRectRadius="12" basicInfo-polygonSides="6" basicInfo-starPoints="5" bounding="rect(-100,-20,200,40)" text="" font-familyName="" font-pixelSize="20" font-bold="0" font-underline="0" font-alignment="1" strokeStyle="0" markerStart="0" markerEnd="0" shadowEnabled="0" shadowOffsetX="0" shadowOffsetY="2" shadowBlur="4" shadowOpacity="160" transform="matrix(0.269462,0,0,0.538924,104.575,153.699)" pers-center="0,0" pers-size="0,0" pers-start="0,0" pers-end="0,0" locked="0" mesh="" flag=""/>
            <path id="shapePath8" d="M78.0866,143.891 C77.7093,144.753 77.6285,146.262 77.6285,153.807 C77.6285,161.729 77.6824,162.807 78.1135,163.562 C78.5716,164.424 80.8082,164.478 104.629,164.478 C129.473,164.478 130.659,164.424 131.063,163.508 C131.44,162.645 131.521,161.136 131.521,153.591 C131.521,145.669 131.467,144.591 131.036,143.837 C130.578,142.975 128.341,142.921 104.521,142.921 C79.6764,142.921 78.4908,142.975 78.0866,143.891 Z" style="stroke:none;fill-rule:evenodd;fill:#000000;fill-opacity:1;"/>
        </g>
    </g>
</svg>
